<svg width="44" height="44" viewBox="0 0 44 44" fill="none" xmlns="http://www.w3.org/2000/svg">
<rect width="44" height="44" rx="4" fill="#EFEFEF"/>
<g filter="url(#filter0_i_377_160)">
<path d="M12.2102 22.4375V29H10.5341V14.4545H12.2102V19.7955H12.3523C12.608 19.232 12.9915 18.7846 13.5028 18.4531C14.0189 18.117 14.7055 17.9489 15.5625 17.9489C16.3059 17.9489 16.9569 18.098 17.5156 18.3963C18.0743 18.6899 18.5076 19.142 18.8153 19.7528C19.1278 20.3589 19.2841 21.1307 19.2841 22.0682V29H17.608V22.1818C17.608 21.3153 17.383 20.6454 16.9332 20.1719C16.4882 19.6937 15.8703 19.4545 15.0795 19.4545C14.5303 19.4545 14.0379 19.5705 13.6023 19.8026C13.1714 20.0346 12.8305 20.3731 12.5795 20.8182C12.3333 21.2633 12.2102 21.803 12.2102 22.4375ZM27.2369 29.1989C26.2994 29.1989 25.4637 29.0379 24.7298 28.7159C24.0006 28.3939 23.4206 27.9465 22.9897 27.3736C22.5636 26.7959 22.3316 26.1259 22.2937 25.3636H24.0835C24.1213 25.8324 24.2823 26.2372 24.5664 26.5781C24.8505 26.9143 25.2222 27.1747 25.6815 27.3594C26.1407 27.544 26.6497 27.6364 27.2085 27.6364C27.8335 27.6364 28.3874 27.5275 28.8704 27.3097C29.3533 27.0919 29.7321 26.7888 30.0067 26.4006C30.2814 26.0123 30.4187 25.5625 30.4187 25.0511C30.4187 24.5161 30.2861 24.045 30.021 23.6378C29.7558 23.2259 29.3675 22.9039 28.8562 22.6719C28.3448 22.4399 27.7198 22.3239 26.9812 22.3239H25.8164V20.7614H26.9812C27.5588 20.7614 28.0655 20.6572 28.5011 20.4489C28.9414 20.2405 29.2847 19.947 29.5309 19.5682C29.7818 19.1894 29.9073 18.7443 29.9073 18.233C29.9073 17.7405 29.7984 17.312 29.5806 16.9474C29.3628 16.5829 29.055 16.2988 28.6573 16.0952C28.2643 15.8916 27.8003 15.7898 27.2653 15.7898C26.7634 15.7898 26.2899 15.8821 25.8448 16.0668C25.4045 16.2467 25.0446 16.5095 24.7653 16.8551C24.4859 17.196 24.3344 17.608 24.3107 18.0909H22.6062C22.6346 17.3286 22.8642 16.661 23.2951 16.0881C23.726 15.5104 24.2894 15.0606 24.9854 14.7386C25.6862 14.4167 26.4556 14.2557 27.2937 14.2557C28.1933 14.2557 28.9651 14.438 29.609 14.8026C30.253 15.1624 30.7478 15.6383 31.0934 16.2301C31.439 16.822 31.6119 17.4612 31.6119 18.1477C31.6119 18.9669 31.3964 19.6652 30.9656 20.2429C30.5394 20.8205 29.9594 21.2206 29.2255 21.4432V21.5568C30.1441 21.7083 30.8614 22.099 31.3775 22.7287C31.8936 23.3537 32.1516 24.1278 32.1516 25.0511C32.1516 25.8419 31.9362 26.5521 31.5053 27.1818C31.0792 27.8068 30.4968 28.2992 29.7582 28.6591C29.0195 29.0189 28.1791 29.1989 27.2369 29.1989Z" fill="#767676"/>
</g>
<defs>
<filter id="filter0_i_377_160" x="10.5342" y="14.2559" width="21.6177" height="14.9429" filterUnits="userSpaceOnUse" color-interpolation-filters="sRGB">
<feFlood flood-opacity="0" result="BackgroundImageFix"/>
<feBlend mode="normal" in="SourceGraphic" in2="BackgroundImageFix" result="shape"/>
<feColorMatrix in="SourceAlpha" type="matrix" values="0 0 0 0 0 0 0 0 0 0 0 0 0 0 0 0 0 0 127 0" result="hardAlpha"/>
<feOffset dx="47" dy="8"/>
<feGaussianBlur stdDeviation="3.6"/>
<feComposite in2="hardAlpha" operator="arithmetic" k2="-1" k3="1"/>
<feColorMatrix type="matrix" values="0 0 0 0 0 0 0 0 0 0 0 0 0 0 0 0 0 0 0.25 0"/>
<feBlend mode="normal" in2="shape" result="effect1_innerShadow_377_160"/>
</filter>
</defs>
</svg>
