<svg width="44" height="44" viewBox="0 0 44 44" fill="none" xmlns="http://www.w3.org/2000/svg">
<rect width="44" height="44" rx="4" fill="#EFEFEF"/>
<g filter="url(#filter0_i_377_154)">
<path d="M13.2102 22.4375V29H11.5341V14.4545H13.2102V19.7955H13.3523C13.608 19.232 13.9915 18.7846 14.5028 18.4531C15.0189 18.117 15.7055 17.9489 16.5625 17.9489C17.3059 17.9489 17.9569 18.098 18.5156 18.3963C19.0743 18.6899 19.5076 19.142 19.8153 19.7528C20.1278 20.3589 20.2841 21.1307 20.2841 22.0682V29H18.608V22.1818C18.608 21.3153 18.383 20.6454 17.9332 20.1719C17.4882 19.6937 16.8703 19.4545 16.0795 19.4545C15.5303 19.4545 15.0379 19.5705 14.6023 19.8026C14.1714 20.0346 13.8305 20.3731 13.5795 20.8182C13.3333 21.2633 13.2102 21.803 13.2102 22.4375ZM23.3221 29V27.7216L28.1232 22.4659C28.6867 21.8504 29.1507 21.3153 29.5153 20.8608C29.8799 20.4015 30.1497 19.9706 30.3249 19.5682C30.5049 19.161 30.5948 18.7348 30.5948 18.2898C30.5948 17.7784 30.4717 17.3357 30.2255 16.9616C29.984 16.5876 29.6526 16.2988 29.2312 16.0952C28.8098 15.8916 28.3363 15.7898 27.8107 15.7898C27.252 15.7898 26.7643 15.9058 26.3477 16.1378C25.9357 16.3651 25.6161 16.6847 25.3888 17.0966C25.1663 17.5085 25.055 17.9915 25.055 18.5455H23.3789C23.3789 17.6932 23.5754 16.9451 23.9684 16.3011C24.3614 15.6572 24.8964 15.1553 25.5735 14.7955C26.2553 14.4356 27.02 14.2557 27.8675 14.2557C28.7198 14.2557 29.475 14.4356 30.1332 14.7955C30.7913 15.1553 31.3074 15.6406 31.6815 16.2514C32.0555 16.8622 32.2425 17.5417 32.2425 18.2898C32.2425 18.8248 32.1455 19.348 31.9513 19.8594C31.762 20.366 31.4305 20.9318 30.957 21.5568C30.4883 22.1771 29.8372 22.9347 29.0039 23.8295L25.7369 27.3239V27.4375H32.4982V29H23.3221Z" fill="#767676"/>
</g>
<defs>
<filter id="filter0_i_377_154" x="11.5342" y="14.2559" width="20.9639" height="14.7441" filterUnits="userSpaceOnUse" color-interpolation-filters="sRGB">
<feFlood flood-opacity="0" result="BackgroundImageFix"/>
<feBlend mode="normal" in="SourceGraphic" in2="BackgroundImageFix" result="shape"/>
<feColorMatrix in="SourceAlpha" type="matrix" values="0 0 0 0 0 0 0 0 0 0 0 0 0 0 0 0 0 0 127 0" result="hardAlpha"/>
<feOffset dx="47" dy="8"/>
<feGaussianBlur stdDeviation="3.6"/>
<feComposite in2="hardAlpha" operator="arithmetic" k2="-1" k3="1"/>
<feColorMatrix type="matrix" values="0 0 0 0 0 0 0 0 0 0 0 0 0 0 0 0 0 0 0.25 0"/>
<feBlend mode="normal" in2="shape" result="effect1_innerShadow_377_154"/>
</filter>
</defs>
</svg>
