<svg width="60" height="62" viewBox="0 0 60 62" fill="none" xmlns="http://www.w3.org/2000/svg">
<ellipse cx="27.7778" cy="27.6786" rx="27.7778" ry="27.6786" fill="#CBEFF6"/>
<path d="M42.0627 42.3415C43.9889 39.0171 48.789 39.0171 50.7152 42.3415L53.827 47.712C55.7584 51.0454 53.3532 55.2188 49.5007 55.2188H43.2772C39.4247 55.2188 37.0195 51.0454 38.9509 47.712L42.0627 42.3415Z" fill="#CBEFF6"/>
<path d="M22.928 22.6965C23.3198 21.5866 24.0932 20.6507 25.1113 20.0546C26.1293 19.4584 27.3262 19.2405 28.49 19.4394C29.6538 19.6383 30.7094 20.2412 31.4698 21.1413C32.2302 22.0414 32.6464 23.1807 32.6447 24.3572C32.6447 27.6787 27.6447 29.3394 27.6447 29.3394M27.778 35.9822H27.7947M44.4447 27.6787C44.4447 36.8506 36.9827 44.2858 27.778 44.2858C18.5732 44.2858 11.1113 36.8506 11.1113 27.6787C11.1113 18.5068 18.5732 11.0715 27.778 11.0715C36.9827 11.0715 44.4447 18.5068 44.4447 27.6787Z" stroke="#69A7B4" stroke-width="3" stroke-linecap="round" stroke-linejoin="round"/>
</svg>
