<svg width="30" height="30" viewBox="0 0 30 30" fill="none" xmlns="http://www.w3.org/2000/svg">
<g id="lucide/arrow-up-right">
<rect x="0.5" y="0.5" width="29" height="29" rx="3.5" fill="white"/>
<rect x="0.5" y="0.5" width="29" height="29" rx="3.5" stroke="#C63A3C"/>
<path id="Vector" d="M6.01136 6L24 23.9886M11.7228 6.62061C13.3513 5.98455 15.1299 5.83691 16.841 6.19576C18.5521 6.5546 20.1216 7.40436 21.3573 8.6411C22.5931 9.87784 23.4417 11.4479 23.7992 13.1593C24.1567 14.8707 24.0077 16.6492 23.3704 18.2772M21.3737 21.3623C20.5374 22.1986 19.5446 22.8619 18.452 23.3145C17.3594 23.7671 16.1883 24 15.0057 24C13.823 24 12.652 23.7671 11.5594 23.3145C10.4667 22.8619 9.47396 22.1986 8.6377 21.3623C7.80145 20.526 7.13809 19.5333 6.68552 18.4406C6.23294 17.348 6 16.177 6 14.9943C6 13.8117 6.23294 12.6406 6.68552 11.548C7.13809 10.4554 7.80145 9.4626 8.6377 8.62634" stroke="#C63A3C" stroke-width="2" stroke-linecap="round" stroke-linejoin="round"/>
</g>
</svg>
