<svg width="296" height="60" viewBox="0 0 296 60" fill="none" xmlns="http://www.w3.org/2000/svg">
<path d="M56.2518 0H5.9661L30.8959 25.6228L56.2518 0Z" fill="#69A7B4"/>
<path d="M24.0775 27.1174C22.3196 24.7687 0 3.84342 0 3.84342V39.9288C0 54.4484 13.2106 60 20.029 60H28.1259V37.153C28.1259 34.2491 25.8353 29.4662 24.0775 27.1174Z" fill="#1C5664"/>
<path d="M37.7143 27.1174C39.4721 24.7687 61.7917 3.84342 61.7917 3.84342V39.9288C61.7917 54.4484 48.368 60 41.7627 60H33.6658V37.153C33.6658 34.2491 35.9564 29.4662 37.7143 27.1174Z" fill="#56837D"/>
<path d="M82.1228 5.33333C82.1228 6.82667 83.3049 8 84.8094 8H95.5557C100.015 8 103.616 11.5733 103.616 16C103.616 20.4267 100.015 24 95.5557 24H84.8094C81.8541 24 79.4362 21.6 79.4362 18.6667H82.1228C82.1228 20.16 83.3049 21.3333 84.8094 21.3333H95.5557C98.511 21.3333 100.929 18.9333 100.929 16C100.929 13.0667 98.511 10.6667 95.5557 10.6667H84.8094C81.8541 10.6667 79.4362 8.26667 79.4362 5.33333C79.4362 2.4 81.8541 0 84.8094 0H98.2423C101.198 0 103.616 2.4 103.616 5.33333H100.929C100.929 3.84 99.7468 2.66667 98.2423 2.66667H84.8094C83.3049 2.66667 82.1228 3.84 82.1228 5.33333Z" fill="black"/>
<path d="M132.878 24V13.3333H114.072V24H111.386V0H114.072V10.6667H132.878V0H135.565V24H132.878Z" fill="black"/>
<path d="M164.828 24V5.33333L156.392 13.7067H154.458L146.022 5.33333V24H143.335V0H146.022V1.54667L155.425 10.9333L164.828 1.54667V0H167.515V24H164.828Z" fill="black"/>
<path d="M186.137 24V12.64L175.337 1.92L177.218 0L187.427 10.1867L197.636 0L199.517 1.92L188.824 12.5333V24H186.137Z" fill="black"/>
<path d="M207.287 24V12C207.287 5.38667 212.714 0 219.376 0C226.039 0 231.466 5.38667 231.466 12V24H228.779V16H209.973V24H207.287ZM228.779 13.3333V12C228.779 6.82667 224.588 2.66667 219.376 2.66667C214.164 2.66667 209.973 6.82667 209.973 12V13.3333H228.779Z" fill="black"/>
<path d="M239.236 24V0H241.923V10.6667H249.983C255.893 10.6667 260.729 5.86667 260.729 0H263.416C263.416 5.28 260.299 9.81333 255.839 12C260.299 14.1867 263.416 18.72 263.416 24H260.729C260.729 18.1333 255.893 13.3333 249.983 13.3333H241.923V24H239.236Z" fill="black"/>
<path d="M273.872 5.33333C273.872 6.82667 275.054 8 276.559 8H287.305C291.765 8 295.365 11.5733 295.365 16C295.365 20.4267 291.765 24 287.305 24H276.559C273.604 24 271.186 21.6 271.186 18.6667H273.872C273.872 20.16 275.054 21.3333 276.559 21.3333H287.305C290.261 21.3333 292.678 18.9333 292.678 16C292.678 13.0667 290.261 10.6667 287.305 10.6667H276.559C273.604 10.6667 271.186 8.26667 271.186 5.33333C271.186 2.4 273.604 0 276.559 0H289.992C292.947 0 295.365 2.4 295.365 5.33333H292.678C292.678 3.84 291.496 2.66667 289.992 2.66667H276.559C275.054 2.66667 273.872 3.84 273.872 5.33333Z" fill="black"/>
<path d="M79.2546 38.6667V36H103.434V38.6667H92.6876V60H90.001V38.6667H79.2546Z" fill="black"/>
<path d="M143.443 60V48C143.443 41.3867 148.87 36 155.533 36C162.196 36 167.623 41.3867 167.623 48V60H164.936V52H146.13V60H143.443ZM164.936 49.3333V48C164.936 42.8267 160.745 38.6667 155.533 38.6667C150.321 38.6667 146.13 42.8267 146.13 48V49.3333H164.936Z" fill="black"/>
<path d="M210.319 41.3333C210.319 42.8267 211.501 44 213.005 44H223.752C228.211 44 231.811 47.5733 231.811 52C231.811 56.4267 228.211 60 223.752 60H213.005C210.05 60 207.632 57.6 207.632 54.6667H210.319C210.319 56.16 211.501 57.3333 213.005 57.3333H223.752C226.707 57.3333 229.125 54.9333 229.125 52C229.125 49.0667 226.707 46.6667 223.752 46.6667H213.005C210.05 46.6667 207.632 44.2667 207.632 41.3333C207.632 38.4 210.05 36 213.005 36H226.438C229.393 36 231.811 38.4 231.811 41.3333H229.125C229.125 39.84 227.943 38.6667 226.438 38.6667H213.005C211.501 38.6667 210.319 39.84 210.319 41.3333Z" fill="black"/>
<path d="M271.821 60V36H274.507V46.6667H282.567C288.478 46.6667 293.313 41.8667 293.313 36H296C296 41.28 292.884 45.8133 288.424 48C292.884 50.1867 296 54.72 296 60H293.313C293.313 54.1333 288.478 49.3333 282.567 49.3333H274.507V60H271.821Z" fill="black"/>
</svg>
